<mxfile host="app.diagrams.net" modified="2022-06-02T07:24:54.361Z" agent="5.0 (Windows NT 10.0; Win64; x64) AppleWebKit/537.36 (KHTML, like Gecko) Chrome/101.0.4951.64 Safari/537.36 Edg/101.0.1210.53" etag="QE-HOZ1ilCvdn-OR06N8" version="18.1.3" type="github">
  <diagram id="RnHT67gc2wdafRQIBzxJ" name="Page-1">
    <mxGraphModel dx="782" dy="428" grid="1" gridSize="10" guides="1" tooltips="1" connect="1" arrows="1" fold="1" page="1" pageScale="1" pageWidth="827" pageHeight="1169" math="0" shadow="0">
      <root>
        <mxCell id="0" />
        <mxCell id="1" parent="0" />
        <mxCell id="s-zHdMe3ztjE71n5IfFw-2" value="Attacker&lt;br&gt;103.172.124.2" style="text;html=1;strokeColor=none;fillColor=none;align=center;verticalAlign=middle;whiteSpace=wrap;rounded=0;" parent="1" vertex="1">
          <mxGeometry x="310" y="130" width="60" height="30" as="geometry" />
        </mxCell>
        <mxCell id="s-zHdMe3ztjE71n5IfFw-3" value="Some Service&lt;br&gt;123.123.123.123" style="text;html=1;strokeColor=none;fillColor=none;align=center;verticalAlign=middle;whiteSpace=wrap;rounded=0;" parent="1" vertex="1">
          <mxGeometry x="450" y="130" width="60" height="30" as="geometry" />
        </mxCell>
        <mxCell id="s-zHdMe3ztjE71n5IfFw-4" value="" style="endArrow=none;html=1;rounded=0;exitX=0.5;exitY=0;exitDx=0;exitDy=0;" parent="1" source="s-zHdMe3ztjE71n5IfFw-10" target="s-zHdMe3ztjE71n5IfFw-2" edge="1">
          <mxGeometry width="50" height="50" relative="1" as="geometry">
            <mxPoint x="340" y="320" as="sourcePoint" />
            <mxPoint x="340" y="150" as="targetPoint" />
          </mxGeometry>
        </mxCell>
        <mxCell id="s-zHdMe3ztjE71n5IfFw-5" value="" style="endArrow=none;html=1;rounded=0;exitX=0.5;exitY=0;exitDx=0;exitDy=0;" parent="1" source="s-zHdMe3ztjE71n5IfFw-11" target="s-zHdMe3ztjE71n5IfFw-3" edge="1">
          <mxGeometry width="50" height="50" relative="1" as="geometry">
            <mxPoint x="479.65999999999997" y="320" as="sourcePoint" />
            <mxPoint x="479.65999999999997" y="150" as="targetPoint" />
          </mxGeometry>
        </mxCell>
        <mxCell id="s-zHdMe3ztjE71n5IfFw-6" value="" style="endArrow=classic;html=1;rounded=0;" parent="1" edge="1">
          <mxGeometry width="50" height="50" relative="1" as="geometry">
            <mxPoint x="340" y="218" as="sourcePoint" />
            <mxPoint x="480" y="218" as="targetPoint" />
          </mxGeometry>
        </mxCell>
        <mxCell id="s-zHdMe3ztjE71n5IfFw-7" value="IP Src：123.123.123.123&lt;br&gt;IP Dst：140.116.117.137&lt;br&gt;A" style="text;html=1;strokeColor=none;fillColor=none;align=center;verticalAlign=middle;whiteSpace=wrap;rounded=0;" parent="1" vertex="1">
          <mxGeometry x="332" y="180" width="156" height="30" as="geometry" />
        </mxCell>
        <mxCell id="s-zHdMe3ztjE71n5IfFw-10" value="Attacker" style="text;html=1;strokeColor=none;fillColor=none;align=center;verticalAlign=middle;whiteSpace=wrap;rounded=0;" parent="1" vertex="1">
          <mxGeometry x="310" y="390" width="60" height="30" as="geometry" />
        </mxCell>
        <mxCell id="s-zHdMe3ztjE71n5IfFw-11" value="Some Service" style="text;html=1;strokeColor=none;fillColor=none;align=center;verticalAlign=middle;whiteSpace=wrap;rounded=0;" parent="1" vertex="1">
          <mxGeometry x="440" y="390" width="80" height="30" as="geometry" />
        </mxCell>
        <mxCell id="fpiBBAnJ3eEfESmz6wKW-3" value="Victim&lt;br&gt;140.116.117.137" style="text;html=1;strokeColor=none;fillColor=none;align=center;verticalAlign=middle;whiteSpace=wrap;rounded=0;" parent="1" vertex="1">
          <mxGeometry x="590" y="130" width="60" height="30" as="geometry" />
        </mxCell>
        <mxCell id="fpiBBAnJ3eEfESmz6wKW-4" value="" style="endArrow=none;html=1;rounded=0;exitX=0.5;exitY=0;exitDx=0;exitDy=0;" parent="1" source="fpiBBAnJ3eEfESmz6wKW-5" target="fpiBBAnJ3eEfESmz6wKW-3" edge="1">
          <mxGeometry width="50" height="50" relative="1" as="geometry">
            <mxPoint x="619.66" y="320" as="sourcePoint" />
            <mxPoint x="619.66" y="150" as="targetPoint" />
          </mxGeometry>
        </mxCell>
        <mxCell id="fpiBBAnJ3eEfESmz6wKW-5" value="Victim" style="text;html=1;strokeColor=none;fillColor=none;align=center;verticalAlign=middle;whiteSpace=wrap;rounded=0;" parent="1" vertex="1">
          <mxGeometry x="590" y="390" width="60" height="30" as="geometry" />
        </mxCell>
        <mxCell id="fpiBBAnJ3eEfESmz6wKW-7" value="" style="endArrow=classic;html=1;rounded=0;" parent="1" edge="1">
          <mxGeometry width="50" height="50" relative="1" as="geometry">
            <mxPoint x="481" y="268" as="sourcePoint" />
            <mxPoint x="621" y="268" as="targetPoint" />
          </mxGeometry>
        </mxCell>
        <mxCell id="fpiBBAnJ3eEfESmz6wKW-8" value="IP Src：123.123.123.123&lt;br&gt;IP Dst：140.116.117.137&lt;br&gt;A" style="text;html=1;strokeColor=none;fillColor=none;align=center;verticalAlign=middle;whiteSpace=wrap;rounded=0;" parent="1" vertex="1">
          <mxGeometry x="473" y="230" width="156" height="30" as="geometry" />
        </mxCell>
        <mxCell id="fpiBBAnJ3eEfESmz6wKW-9" value="" style="endArrow=classic;html=1;rounded=0;" parent="1" edge="1">
          <mxGeometry width="50" height="50" relative="1" as="geometry">
            <mxPoint x="481" y="378" as="sourcePoint" />
            <mxPoint x="621" y="378" as="targetPoint" />
          </mxGeometry>
        </mxCell>
        <mxCell id="fpiBBAnJ3eEfESmz6wKW-10" value="IP Src：123.123.123.123&lt;br&gt;IP Dst：140.116.117.137&lt;br&gt;A" style="text;html=1;strokeColor=none;fillColor=none;align=center;verticalAlign=middle;whiteSpace=wrap;rounded=0;" parent="1" vertex="1">
          <mxGeometry x="473" y="340" width="156" height="30" as="geometry" />
        </mxCell>
        <mxCell id="fpiBBAnJ3eEfESmz6wKW-11" value="..." style="text;html=1;strokeColor=none;fillColor=none;align=center;verticalAlign=middle;whiteSpace=wrap;rounded=0;" parent="1" vertex="1">
          <mxGeometry x="521" y="290" width="60" height="30" as="geometry" />
        </mxCell>
        <mxCell id="fpiBBAnJ3eEfESmz6wKW-12" value="" style="shape=curlyBracket;whiteSpace=wrap;html=1;rounded=1;flipH=1;" parent="1" vertex="1">
          <mxGeometry x="630" y="220" width="20" height="160" as="geometry" />
        </mxCell>
        <mxCell id="fpiBBAnJ3eEfESmz6wKW-13" value="five times" style="text;html=1;strokeColor=none;fillColor=none;align=center;verticalAlign=middle;whiteSpace=wrap;rounded=0;" parent="1" vertex="1">
          <mxGeometry x="660" y="285" width="60" height="30" as="geometry" />
        </mxCell>
      </root>
    </mxGraphModel>
  </diagram>
</mxfile>
